<?xml version="1.0" encoding="utf-8"?>
<!DOCTYPE svg PUBLIC "-//W3C//DTD SVG 1.0//EN" "http://www.w3.org/TR/2001/REC-SVG-20010904/DTD/svg10.dtd">
<svg version="1.0" xmlns="http://www.w3.org/2000/svg" width="1024px" height="1024px" viewBox="0 0 1024 1024" preserveAspectRatio="xMidYMid meet">
 <g fill="#006763">
  <path d="M495.5 776.4 c-26 -2.3 -42.4 -5.1 -63.2 -10.9 -93.8 -26.5 -168 -99.9 -195.8 -194.1 -11.9 -40.2 -14.5 -84.7 -7.4 -126.4 7.1 -41.8 21.9 -78.3 45.6 -113 11.4 -16.5 25.7 -33.5 27.4 -32.4 0.5 0.3 0.6 -0.1 0.3 -0.9 -0.6 -1.6 16.6 -18 29.6 -28.3 58 -45.7 132.2 -67 209 -59.9 80.8 7.4 152.2 47.5 201.5 113 68.6 91.3 75.2 215.1 16.6 313.6 -34.7 58.3 -89.3 102.3 -154.6 124.6 -21 7.2 -45.8 12.2 -69 14.2 -10.1 0.8 -32.7 1.1 -40 0.5z m9.7 -154.4 c0.3 -104.6 0.5 -119.2 1.8 -120 0.9 -0.6 16.4 -1 37.2 -1 31.1 0 35.9 0.2 37.2 1.6 1.4 1.4 1.6 13.1 1.6 114.5 0 68.1 0.4 112.9 0.9 112.9 1.4 0 18.2 -6 21.4 -7.6 l2.7 -1.5 0 -138.6 c0 -102 0.3 -138.9 1.1 -139.9 0.9 -1.1 7.9 -1.4 37.5 -1.4 31.6 0 36.5 0.2 37.8 1.6 1.4 1.4 1.6 13.2 1.6 114.9 0 74.5 0.3 113.6 1 114 0.6 0.3 1 -0.1 1 -0.9 0 -0.8 0.6 -1.9 1.3 -2.3 0.7 -0.4 5.2 -5 10 -10.2 l8.7 -9.5 0 -96.9 0 -96.9 3.8 0.7 c7.8 1.4 7.2 -6.6 7.2 90.4 0 99.6 -1.4 90.6 11 69.5 15.1 -25.8 26 -56.7 30.5 -86.4 2.6 -16.6 3 -45.8 1.1 -62.9 -3.5 -29.7 -10.8 -54.7 -24.1 -81.6 -12.6 -25.6 -25.4 -43.8 -44.7 -63.6 -37.6 -38.5 -83.5 -62.2 -139.3 -72 -15.4 -2.7 -48.9 -3.7 -66 -2 -58.7 5.9 -112.2 30.8 -153.4 71.4 -38.9 38.4 -62.1 84.3 -70.8 139.7 -2.5 16.2 -2.5 53 0 69 5.8 37.4 19 71.6 39.3 102.3 4.7 7 8.9 12.7 9.4 12.7 0.5 0 0.8 -1.2 0.5 -2.7 -0.2 -1.6 -0.7 -10.2 -1 -19.2 -0.4 -11.6 -0.2 -16.7 0.6 -17.7 1.6 -1.9 61.6 -2.1 64.2 -0.1 1.5 1.1 1.7 5.7 1.8 50 0.1 47.1 0.2 48.9 2 50.5 2.6 2.2 18.6 11.1 20.7 11.4 1.4 0.3 1.6 -6.2 1.6 -74.3 0.1 -61.7 0.3 -74.9 1.5 -76.2 1.2 -1.5 5.1 -1.7 37.6 -1.7 29.4 0 36.5 0.3 37.4 1.4 0.8 1 1.1 24.4 1.1 86 0 46.5 0.3 86 0.6 87.6 0.7 3.2 1.5 3.4 17.6 3.8 l6.8 0.2 0.2 -119z"/>
  <path d="M309 553.4 c72.3 -29.7 132 -63.5 197 -111.4 27.2 -20 50.7 -39.1 74.3 -60.3 6 -5.4 10.2 -8.5 11 -8.1 0.6 0.4 0.9 0.3 0.4 -0.1 -0.4 -0.5 0.6 -2.3 2.3 -4 l3 -3.1 -10.5 -11.6 c-5.8 -6.4 -10.5 -11.8 -10.5 -12.1 0 -0.2 7.3 -0.7 16.3 -1.1 8.9 -0.4 19.6 -0.9 23.7 -1.1 4.1 -0.2 15.8 -0.7 25.9 -1.1 17.6 -0.6 18.4 -0.5 17.6 1.3 -0.9 2.5 -17.8 51.2 -22.3 64.6 -2 5.9 -3.9 10.7 -4.2 10.7 -0.3 0 -4.3 -5 -8.9 -11 -4.6 -6.1 -8.6 -11 -8.9 -11 -0.3 0 -4.6 3.7 -9.6 8.3 -67.9 61.6 -136.1 104.7 -212.7 134.6 -25.2 9.8 -71.4 20.2 -88.9 20.1 -3.1 -0.1 -2.5 -0.5 5 -3.6z"/>
 </g>
</svg>